<?xml version="1.0" encoding="UTF-8" standalone="no"?>
<!DOCTYPE svg PUBLIC "-//W3C//DTD SVG 1.1//EN" "http://www.w3.org/Graphics/SVG/1.1/DTD/svg11.dtd">
<svg width="100%" height="100%" viewBox="0 0 1000 1000" version="1.1" xmlns="http://www.w3.org/2000/svg" xmlns:xlink="http://www.w3.org/1999/xlink" xml:space="preserve" xmlns:serif="http://www.serif.com/" style="fill-rule:evenodd;clip-rule:evenodd;stroke-linejoin:round;stroke-miterlimit:2;">
    <g id="Kube" transform="matrix(8.50929,0,0,8.50929,-2843.6,-4352.99)">
        <g id="dark2" transform="matrix(1,0,0,1,354.022,-227.869)">
            <path id="path954" d="M22.597,840.545L45.195,824.003L45.195,805.563L22.597,822.106L22.597,840.545Z" style="fill:rgb(128,102,0);"/>
            <path id="path940" d="M47.726,807.959L70.323,791.416L70.323,784.727L47.726,801.27L47.726,807.959Z" style="fill:rgb(128,102,0);"/>
        </g>
        <g id="neutral" transform="matrix(1,0,0,1,354.022,-227.869)">
            <path id="path930" d="M55.228,849.289L77.826,832.746L77.826,807.889L55.228,824.431L55.228,849.289Z" style="fill:rgb(230,183,0);"/>
            <path id="path934" d="M47.726,815.732L70.323,799.19L70.323,805.879L47.726,822.421L47.726,815.732Z" style="fill:rgb(230,183,0);"/>
            <path id="path942" d="M55.228,803.28L77.826,786.737L77.826,761.88L55.228,778.423L55.228,803.28Z" style="fill:rgb(230,183,0);"/>
            <path id="path950" d="M22.597,788.119L22.597,769.679L45.195,753.137L45.195,771.576L22.597,788.119Z" style="fill:rgb(230,183,0);"/>
            <path id="path938" d="M40.766,813.867L40.766,806.094L63.363,789.551L63.363,797.325L40.766,813.867Z" style="fill:rgb(230,183,0);"/>
        </g>
        <g id="light1" transform="matrix(1,0,0,1,354.022,-227.869)">
            <path id="path946" d="M22.597,788.119L45.195,771.576L48.539,772.473L25.942,789.015L22.597,788.119Z" style="fill:rgb(255,209,26);"/>
            <path id="path932" d="M47.726,822.421L55.228,824.431L77.826,807.889L70.323,805.879L47.726,822.421Z" style="fill:rgb(255,209,26);"/>
            <path id="path936" d="M40.766,813.867L47.726,815.732L70.323,799.19L63.363,797.325L40.766,813.867Z" style="fill:rgb(255,209,26);"/>
            <path id="path948" d="M25.942,779.253L48.539,762.71L55.228,764.503L32.631,781.045L25.942,779.253Z" style="fill:rgb(255,209,26);"/>
            <path id="path952" d="M22.597,747.082L45.195,753.137L22.597,769.679L0,763.624L22.597,747.082Z" style="fill:rgb(255,209,26);"/>
            <path id="path944" d="M32.631,772.368L55.228,755.825L77.826,761.88L55.228,778.423L32.631,772.368Z" style="fill:rgb(255,209,26);"/>
        </g>
        <g transform="matrix(0.498248,0.133505,0,0.498249,2634.66,1046.29)">
            <g id="dark1">
                <path id="path911" d="M-4531.96,201.829L-4531.96,238.838L-4525.25,238.838L-4525.25,219.245L-4511.82,219.245L-4511.82,201.829L-4466.47,201.829L-4466.47,251.719L-4481.53,251.719L-4481.53,265.143L-4495.49,265.143L-4495.49,280.745L-4481.53,280.745L-4481.53,294.17L-4466.47,294.17L-4466.47,344.059L-4511.82,344.059L-4511.82,326.643L-4525.25,326.643L-4525.25,307.05L-4531.96,307.05L-4531.96,344.059L-4577.31,344.059L-4577.31,201.829L-4531.96,201.829Z" style="fill:rgb(179,143,0);fill-rule:nonzero;"/>
            </g>
        </g>
    </g>
</svg>
